Coordinates
version=1
nRows=11
nColumns=40
inDegrees=yes

Units are S.I. units (second, meters, Newtons, ...)
Angles are in degrees.

endheader
time	pelvis_tilt	pelvis_list	pelvis_rotation	pelvis_tx	pelvis_ty	pelvis_tz	hip_flexion_r	hip_adduction_r	hip_rotation_r	knee_angle_r	knee_angle_r_beta	ankle_angle_r	subtalar_angle_r	mtp_angle_r	hip_flexion_l	hip_adduction_l	hip_rotation_l	knee_angle_l	knee_angle_l_beta	ankle_angle_l	subtalar_angle_l	mtp_angle_l	lumbar_extension	lumbar_bending	lumbar_rotation	arm_flex_r	arm_add_r	arm_rot_r	elbow_flex_r	pro_sup_r	wrist_flex_r	wrist_dev_r	arm_flex_l	arm_add_l	arm_rot_l	elbow_flex_l	pro_sup_l	wrist_flex_l	wrist_dev_l
     38.35500000	     -2.29779862	     -4.40311173	      5.81851291	      1.12693851	      0.92605112	      0.52143650	     -1.05708911	      3.20356807	    -18.19094621	     10.63747797	     10.63747797	     15.20083841	      1.90530445	     -7.01535981	     27.27031528	     -7.28301891	     -1.57739498	     22.65352594	     22.65352594	      3.93566173	     -8.85632831	      5.72197012	     -9.00565138	      6.17643983	      3.16887854	     18.02220105	    -21.95263825	      1.66242110	     59.36954602	     44.62933725	      0.00000000	      0.00000000	     -1.38577163	     -9.85480517	    -14.23031606	     31.32587891	     47.26748484	      0.00000000	      0.00000000
     38.36850000	     -2.20004175	     -4.38471174	      5.64622338	      1.12861459	      0.92513256	      0.52004562	     -1.39562267	      3.06695014	    -17.77646332	     11.19498605	     11.19498605	     15.91573885	      1.46350950	     -6.23703413	     26.60229583	     -7.01204140	     -0.89439460	     23.02759510	     23.02759510	      3.73909624	    -10.67144014	      5.26198919	     -8.87677449	      5.97345346	      2.95835648	     17.53716732	    -21.59131270	      1.87970212	     60.32100839	     44.60602089	      0.00000000	      0.00000000	     -1.70271975	     -9.97926287	    -14.70131038	     31.56867504	     47.30793278	      0.00000000	      0.00000000
     38.38200000	     -2.08142064	     -4.36970026	      5.46298751	      1.13030976	      0.92451538	      0.51852976	     -1.78151968	      2.90646624	    -17.48494897	     11.72462125	     11.72462125	     16.77366281	      1.46149389	     -4.79221808	     25.93819192	     -6.86913392	     -0.61406993	     23.34950181	     23.34950181	      3.66858300	    -11.64365578	      4.37344074	     -8.80014352	      5.81899150	      3.03655402	     16.70913096	    -21.42884007	      1.92700901	     61.06795631	     44.62794602	      0.00000000	      0.00000000	     -1.70081302	     -9.97343043	    -15.55548557	     31.69112147	     47.36922144	      0.00000000	      0.00000000
     38.39550000	     -1.97464097	     -4.32420178	      5.31709943	      1.13187950	      0.92408726	      0.51687472	     -2.21022489	      2.71763037	    -17.27929159	     12.07527612	     12.07527612	     17.00887542	      1.33334143	     -4.81312826	     25.44808345	     -6.72354141	     -0.44463004	     23.85722008	     23.85722008	      4.08721824	    -12.13729639	      4.19131368	     -8.70928724	      5.60231454	      2.89641182	     16.17910212	    -21.02870542	      2.03956981	     61.00541499	     44.62690311	      0.00000000	      0.00000000	     -1.74612911	    -10.13071878	    -15.61550011	     31.62157931	     47.37288606	      0.00000000	      0.00000000
     38.40900000	     -1.99624470	     -4.22209738	      5.19861413	      1.13306614	      0.92371751	      0.51492143	     -2.22654805	      2.37598412	    -16.92253524	     12.92369925	     12.92369925	     17.39105651	      0.77751191	     -4.50339484	     25.13673519	     -6.38170143	      0.11669558	     24.28406903	     24.28406903	      4.38417084	    -13.23868234	      4.32579339	     -8.55156179	      5.37153974	      2.70352613	     15.59453067	    -20.63878465	      1.99781852	     61.15321334	     44.63527397	      0.00000000	      0.00000000	     -1.67852876	    -10.22797882	    -15.78002262	     31.46873448	     47.37971140	      0.00000000	      0.00000000
     38.42250000	     -1.90011673	     -4.18259128	      5.12416477	      1.13431724	      0.92387312	      0.51282932	     -2.61596167	      2.15928805	    -16.79248115	     13.26209294	     13.26209294	     17.40908684	      0.67842133	     -4.45909191	     24.73000894	     -6.21291106	      0.33008806	     24.68500587	     24.68500587	      4.86076669	    -13.56941809	      4.14422586	     -8.54309928	      5.21880227	      2.49217692	     14.92940005	    -20.28434880	      2.11607311	     61.01727539	     44.63411466	      0.00000000	      0.00000000	     -1.61189048	    -10.30479140	    -15.80628735	     31.45713873	     47.38228200	      0.00000000	      0.00000000
     38.43600000	     -1.91957940	     -4.03879473	      5.02932908	      1.13505956	      0.92398925	      0.51047121	     -2.39782180	      1.66373828	    -16.52673924	     14.51790026	     14.51790026	     17.67659582	      0.09258230	     -4.12138320	     24.53764985	     -5.82426513	      0.79027635	     25.15717603	     25.15717603	      5.18963461	    -14.52490876	      4.50903662	     -8.51877306	      4.96455249	      2.43397458	     14.15425468	    -20.02833941	      1.99086428	     61.02300253	     44.64754018	      0.00000000	      0.00000000	     -1.28731915	    -10.38004204	    -15.90976899	     31.35762473	     47.38709029	      0.00000000	      0.00000000
     38.44950000	     -1.86513009	     -3.96772594	      4.96881385	      1.13587552	      0.92446682	      0.50796205	     -2.39654401	      1.27152466	    -16.41782993	     15.49061082	     15.49061082	     17.77012525	     -0.19969811	     -3.87344803	     24.22054240	     -5.57357028	      1.00716559	     25.51543675	     25.51543675	      5.67140013	    -14.95648360	      4.76351174	     -8.51882560	      4.82350712	      2.36425306	     13.31985641	    -19.76176023	      1.89711953	     60.90148324	     44.66159567	      0.00000000	      0.00000000	     -0.97280213	    -10.38629447	    -15.95355785	     31.29187513	     47.38563282	      0.00000000	      0.00000000
     38.46300000	     -1.74320421	     -3.99860965	      4.93157128	      1.13665096	      0.92527501	      0.50525128	     -2.56839077	      1.01001807	    -16.34243561	     16.20135759	     16.20135759	     17.60265137	     -0.33331980	     -3.85369570	     23.79705484	     -5.45241176	      1.15491204	     25.77115652	     25.77115652	      6.10856418	    -15.15822210	      4.70541925	     -8.64435009	      4.86951002	      2.09238822	     12.52392956	    -19.44404957	      1.98735351	     60.67086507	     44.66466473	      0.00000000	      0.00000000	     -0.74384415	    -10.41980335	    -15.95397498	     31.33778274	     47.38637234	      0.00000000	      0.00000000
     38.47650000	     -1.80789703	     -3.81167454	      4.76488080	      1.13692555	      0.92575370	      0.50247326	     -1.89206749	      0.26475504	    -16.13142350	     18.17539181	     18.17539181	     17.69886347	     -0.82596048	     -4.08749000	     23.53224584	     -5.10801643	      1.08752472	     25.98281487	     25.98281487	      6.53618134	    -15.45645694	      5.01947588	     -8.65194719	      4.64460146	      2.21939328	     11.70626082	    -19.37354987	      1.87879088	     60.28955527	     44.68606151	      0.00000000	      0.00000000	     -0.22380847	    -10.41105830	    -15.93636035	     31.48012127	     47.38237400	      0.00000000	      0.00000000
     38.49000000	     -1.90201730	     -3.74507598	      4.61683356	      1.13717268	      0.92632087	      0.49957232	     -1.20314252	     -0.34703553	    -15.95337232	     20.04055972	     20.04055972	     17.57173754	     -1.24922853	     -4.38899794	     23.24759704	     -4.87860746	      1.03606327	     26.08283693	     26.08283693	      7.06104178	    -15.58406231	      5.42039797	     -8.59914541	      4.59358985	      2.30293324	     10.74139507	    -19.19828685	      1.70645149	     59.81536785	     44.71449769	      0.00000000	      0.00000000	      0.20601757	    -10.35380636	    -15.86800616	     31.62538665	     47.36675161	      0.00000000	      0.00000000
